<svg width="112" height="92" viewBox="0 0 112 92" fill="none" xmlns="http://www.w3.org/2000/svg">
<path d="M69.1993 52.6308L80.3783 41.7452C80.7572 41.3761 80.8941 40.8236 80.7302 40.3208C80.5666 39.8175 80.1315 39.4506 79.6073 39.3747L64.1596 37.1338L57.25 23.1501C57.0157 22.6757 56.5322 22.3755 56.0027 22.3755C55.4733 22.3755 54.9895 22.6762 54.7555 23.1501L47.8484 37.1338L32.3982 39.3747C31.8743 39.4506 31.4389 39.8178 31.2753 40.3208C31.1114 40.8236 31.248 41.3761 31.6272 41.7452L42.8062 52.6308L40.1686 68.0002C40.079 68.5213 40.2935 69.0483 40.722 69.359C41.1499 69.67 41.7175 69.7112 42.1868 69.4649L56.0033 62.2095L69.8198 69.4649C70.0231 69.5719 70.2454 69.6245 70.4666 69.6245C70.7551 69.6245 71.042 69.535 71.2843 69.359C71.7128 69.0486 71.9276 68.5213 71.8377 68.0002L69.1993 52.6308Z" fill="#F2C94C"/>
<path d="M111.404 48.1143C111.334 48.0565 111.232 48.0382 111.153 48.0648C111.056 48.0946 110.968 48.1204 110.884 48.1449L110.843 48.1568C110.636 48.2172 110.458 48.2688 110.281 48.3397C107.49 49.4476 105.293 51.3456 103.563 54.1419C103.136 54.8328 102.806 55.551 102.542 56.2672C102.974 53.8581 103.074 52.9195 103.151 50.2238C103.155 50.1107 103.155 49.9956 103.155 49.8814C103.155 49.5696 103.155 49.275 103.223 49.0062C103.304 48.6877 103.469 48.37 103.628 48.0626C103.673 47.9756 103.718 47.8886 103.755 47.8122C103.767 47.7972 103.809 47.7719 103.825 47.7694C104.623 47.6477 105.329 47.3091 105.983 46.7347C106.643 46.1529 107.185 45.4409 107.595 44.6176C109.068 41.6671 109.805 38.4058 109.787 34.9255C109.785 34.5898 109.746 34.263 109.702 33.9075C109.682 33.7482 109.662 33.5853 109.646 33.4166C109.636 33.3241 109.579 33.2418 109.497 33.2018C109.415 33.1623 109.317 33.1651 109.234 33.2149C109.184 33.246 109.142 33.2713 109.103 33.2938C109.028 33.3383 108.971 33.373 108.917 33.4119C107.661 34.3116 106.553 35.4317 105.623 36.7402C104.106 38.8789 103.224 41.2972 102.986 43.9575C102.963 43.661 102.939 43.3644 102.915 43.0679L102.907 42.9603C102.813 41.7977 102.717 40.5954 102.639 39.4131C102.619 39.1137 102.561 38.8224 102.506 38.5406C102.398 37.9989 102.297 37.4873 102.459 36.9511C102.496 36.8299 102.527 36.7079 102.559 36.5862C102.635 36.2846 103.006 35.8202 103.576 35.3124L103.597 35.2932C103.807 35.1154 104.886 34.1293 105.498 32.1787C106.12 30.1971 106.072 28.1265 106.038 26.6145L106.037 26.5742C105.992 24.4958 105.767 22.9297 105.308 21.4952C105.249 21.3118 105.179 21.1309 105.104 20.9408C105.066 20.8418 105.026 20.7395 104.985 20.6325C104.952 20.5419 104.872 20.4761 104.778 20.4605L104.732 20.4563C104.651 20.4563 104.575 20.4927 104.524 20.5556L104.078 21.0978C101.943 23.6998 100.893 26.7515 100.959 30.1684C100.97 30.7702 101.016 31.3875 101.095 32.0248C100.553 30.1534 99.916 28.3319 99.1921 26.5795C99.177 26.5411 99.1673 26.4936 99.1662 26.4533L99.1612 26.2137C99.1537 25.868 99.1459 25.5103 99.1606 25.1584C99.1629 25.1 99.2007 24.9953 99.2794 24.8921C99.3913 24.7446 99.5154 24.6003 99.6439 24.4502C99.8629 24.1956 100.089 23.9327 100.268 23.6326C100.845 22.667 101.116 21.5264 101.121 20.0425C101.128 18.2957 100.859 16.4574 100.271 14.257C99.9502 13.0566 99.4656 11.4971 98.563 10.0833C98.5018 9.98825 98.4334 9.89875 98.3605 9.80398C98.3276 9.76201 98.2931 9.71726 98.2581 9.66918C98.2069 9.60053 98.1362 9.56051 98.0221 9.56051C97.9312 9.56718 97.8499 9.61888 97.8046 9.6992C96.6717 11.7417 96.1074 13.9238 96.0807 16.3702C96.0579 18.4099 96.3767 20.1651 96.7766 21.5522C95.7591 19.6954 94.6284 17.9013 93.4028 16.1995L93.3747 16.1609C93.3469 16.1239 93.3352 16.1058 93.3372 16.1186C93.2601 15.568 93.2067 15.1275 93.1697 14.744C93.1705 14.7381 93.1778 14.7059 93.2351 14.6103C93.316 14.4724 93.4048 14.3373 93.4991 14.1945C93.6883 13.9071 93.8836 13.6097 94.0088 13.2768C94.3866 12.2718 94.4715 11.1319 94.2676 9.79342C93.8199 6.83092 92.5125 4.16332 90.2717 1.63774C90.0411 1.37843 89.7862 1.14913 89.5166 0.906774L89.4421 0.839236C89.3366 0.743905 89.2284 0.646351 89.1191 0.543238C89.0495 0.47709 88.9499 0.452354 88.8534 0.480703C88.7621 0.509608 88.6917 0.585205 88.67 0.679147L88.621 0.893712C88.5877 1.03601 88.5618 1.1483 88.5426 1.26114C88.241 3.05937 88.263 4.98545 88.6102 7.14999C88.9546 9.29675 89.641 11.1483 90.6941 12.7567C89.1149 10.8979 87.5788 9.33705 85.9735 7.95378C85.9663 7.94433 85.9557 7.9157 85.9549 7.90847C86.0803 6.8287 85.8138 5.81147 85.1394 4.79868C84.2538 3.46765 83.0232 2.4532 81.4819 1.78393C80.5596 1.38426 79.6039 1.03046 78.6682 0.683872C78.22 0.517668 77.7718 0.35202 77.3102 0.17442C76.8464 -0.00984963 76.6481 -0.0426459 76.5404 0.0568543C76.4018 0.185815 76.4352 0.295878 76.4956 0.49599L76.5151 0.561303C77.0807 2.46459 77.8313 3.96988 78.8104 5.16305C80.6077 7.35566 82.7097 8.46962 85.2332 8.56801C85.3216 8.57329 85.3917 8.59775 85.4204 8.61998C85.7757 8.88569 86.0372 9.09831 86.2684 9.30898C86.9996 9.97658 87.7196 10.6878 88.4241 11.4368C87.3763 10.7865 86.0956 10.493 84.6533 10.5658C83.864 10.6055 83.0805 10.7212 82.323 10.8329L82.294 10.8373C82.07 10.8701 81.8472 10.9026 81.6249 10.9341C81.138 10.9999 80.6472 11.0861 80.2138 11.1617C80.0382 11.1931 79.6189 11.2884 79.5224 11.4916C79.489 11.5611 79.4918 11.6372 79.5296 11.7064C79.563 11.7667 79.5997 11.8234 79.6398 11.8751C80.891 13.4969 82.3182 14.565 84.0031 15.14C86.0575 15.8449 87.9444 15.7868 89.6399 14.9577C89.8992 14.8151 90.2119 14.7429 90.5692 14.7429C90.8388 14.7429 91.041 14.7854 91.1081 14.8007C91.2085 14.8173 91.3448 14.8735 91.3727 14.9096C92.4271 16.2946 93.4279 17.7737 94.3624 19.3276C93.5728 18.5605 92.5431 18.0433 91.1403 17.7065C89.9109 17.4138 88.6539 17.351 87.4386 17.2898L87.0316 17.2693C86.6504 17.2498 86.2692 17.2256 85.8767 17.2009L85.2184 17.1603C85.1333 17.1603 85.0523 17.2015 85.0028 17.2698C84.948 17.3435 84.9349 17.4391 84.9672 17.525C84.9936 17.5967 85.0417 17.7231 85.0665 17.7654C86.3483 19.9071 87.8534 21.3885 89.6674 22.2946C91.4408 23.1795 93.0431 23.4135 94.6593 23.0275C94.8463 22.9825 95.063 22.9586 95.287 22.9586C95.9744 22.9586 96.4538 23.1681 96.5545 23.3621C97.4437 25.1945 98.2372 27.0987 98.9216 29.0409C98.2038 28.0522 97.2 27.2493 95.9291 26.6487C94.6665 26.0534 93.3519 25.5092 92.0585 24.9736C91.5026 24.744 90.9445 24.5136 90.3889 24.2779C90.3062 24.2418 90.2086 24.2493 90.1315 24.3001C90.0558 24.3505 90.0108 24.4344 90.0108 24.5247C90.0108 24.6982 91.8554 29.8124 94.5344 31.8277C95.6272 32.6498 96.9733 33.4956 98.6707 33.5353C99.1787 33.5456 99.704 33.6173 100.101 34.0678C100.161 34.1395 100.242 34.1954 100.329 34.2252C100.465 34.2696 100.502 34.3524 100.569 34.6348C101.119 36.9406 101.519 39.3172 101.766 41.7305C101.691 41.4856 101.605 41.2382 101.505 40.9878C100.906 39.4689 99.8965 38.1398 98.3296 36.8049C97.5219 36.114 96.6761 35.445 95.8581 34.7977L95.8192 34.7671C95.4467 34.4722 95.075 34.1785 94.7044 33.8811C94.6279 33.8196 94.5533 33.7563 94.4668 33.6823L94.2356 33.4845C94.1546 33.4161 94.0341 33.4019 93.9395 33.4492C93.8424 33.4984 93.7843 33.6001 93.7918 33.7087C93.8032 33.8719 93.8124 34.0261 93.821 34.1743L93.8255 34.2435C93.8438 34.5484 93.8611 34.836 93.892 35.1201C94.1819 37.8858 95.0051 40.1949 96.4087 42.179C97.2776 43.4056 98.5241 44.9047 100.468 45.6137C100.941 45.7872 101.284 46.0498 101.651 46.5212C101.998 46.9626 102.062 47.3658 102.055 47.8733C102.022 49.9993 101.87 52.1082 101.603 54.1735C101.54 53.5988 101.408 53.0071 101.204 52.3923C100.783 51.1193 100.127 49.8817 99.1982 48.6088C98.3964 47.5065 97.562 46.4003 96.7551 45.33L96.7014 45.2585C96.3815 44.8347 96.0618 44.4103 95.7505 43.9951C95.692 43.9097 95.6077 43.8792 95.5591 43.8622C95.4901 43.8286 95.4077 43.8252 95.3345 43.8564C95.2627 43.8869 95.2077 43.9473 95.1835 44.0212L95.174 44.0501C95.1606 44.089 95.1501 44.1235 95.1445 44.1579C94.5881 47.4726 94.9294 50.4423 96.1878 53.2377C96.8024 54.6046 97.6268 56.1521 99.0802 57.2655C99.7438 57.7739 100.268 58.4871 100.555 59.2733C100.616 59.4426 100.614 59.516 100.607 59.5443C99.992 62.0896 99.1885 64.5446 98.2116 66.8681C98.4631 65.6436 98.4459 64.3573 98.1588 63.0246C97.7512 61.1358 97.0506 59.3053 96.4257 57.7378L96.2385 57.2683C95.9455 56.5337 95.6506 55.7933 95.3459 55.026C95.3073 54.9279 95.2141 54.8609 95.0897 54.8548C94.9918 54.8548 94.9016 54.9106 94.8549 55.0012L94.7567 55.1858C94.7135 55.2667 94.6732 55.342 94.6387 55.4198C93.3817 58.2531 92.9571 61.1575 93.3775 64.0524C93.678 66.1225 94.1872 67.6047 95.0285 68.8587C95.4639 69.5069 95.8776 70.2289 95.9527 71.1169C95.9705 71.327 95.9622 71.4718 95.8684 71.6367C94.8073 73.493 93.6176 75.2448 92.3147 76.8724C92.3197 76.8635 92.3245 76.8546 92.3295 76.8457C93.2668 75.1345 93.2952 73.2842 93.1995 71.6997C93.1168 70.3415 92.961 68.9852 92.8111 67.6739L92.8024 67.598C92.7421 67.0727 92.682 66.5477 92.6272 66.0216C92.5954 65.7233 92.5601 65.4251 92.5237 65.1225L92.4755 64.7128C92.465 64.6222 92.4096 64.5438 92.33 64.5043C92.182 64.4271 91.9425 64.5463 91.6837 64.852C89.9056 66.9529 88.8022 69.327 88.4038 71.9088C87.9906 74.5855 88.2146 76.8763 89.0893 78.9118C89.1127 78.966 89.1121 79.0767 89.1118 79.1136L89.0648 80.2848C89.0579 80.369 89.0133 80.4641 88.9766 80.4994C87.201 82.2076 85.2462 83.6926 83.1484 84.9285C84.1414 84.0319 84.8553 82.8621 85.318 81.3796C85.8308 79.7365 86.094 78.0263 86.3491 76.3682L86.3713 76.2206C86.4618 75.6381 86.5561 75.0566 86.6524 74.4624L86.7611 73.7906C86.7767 73.6928 86.738 73.595 86.6621 73.5363C86.5867 73.4763 86.4776 73.4618 86.3908 73.4991L86.296 73.5383C86.1947 73.5797 86.1065 73.6167 86.0233 73.6592C82.0575 75.6378 79.447 80.2526 79.8159 84.6317C79.8738 85.3176 79.8109 85.9619 79.6234 86.6C79.6058 86.6581 79.5496 86.7212 79.5268 86.7318C77.6433 87.5253 75.8524 88.1042 74.0503 88.5017C73.9577 88.5231 73.8842 88.5892 73.8542 88.6784C73.8238 88.7682 73.8422 88.8657 73.904 88.9391C74.0998 89.1709 74.2704 89.4202 74.4106 89.6812C74.4682 89.7879 74.6054 89.8427 74.708 89.816C76.1762 89.4814 77.606 89.0481 78.959 88.5272C79.0683 88.4833 79.1518 88.4625 79.23 88.4753C79.531 88.5153 79.849 88.577 80.2021 88.6645C80.275 88.6823 80.3353 88.7159 80.3365 88.7129C81.1077 90.2487 82.4331 91.2271 84.3899 91.7032C84.8155 91.8052 85.2546 91.8805 85.6947 91.9266C86.1555 91.9753 86.6693 92 87.2216 92C87.9867 92 88.5323 91.9528 88.539 91.9522C90.235 91.7626 91.6834 91.3813 92.9663 90.7863C93.4927 90.5425 94.0926 90.2143 94.5536 89.6281C94.6418 89.5158 94.627 89.3538 94.5199 89.2596C93.2167 88.1109 91.8899 87.2762 90.4629 86.7081C88.3487 85.8688 86.4228 85.6414 84.5351 86.0041C84.253 86.0589 83.9775 86.1278 83.7099 86.207C85.4758 85.1526 87.1665 83.9133 88.7632 82.5014C88.7938 82.4736 88.8442 82.4491 88.8834 82.4421C89.1447 82.3988 89.4916 82.3454 89.8466 82.3199C89.8794 82.3199 89.9212 82.3357 89.9259 82.3374C90.888 83.413 92.1275 83.9358 93.7153 83.9358C93.7962 83.9358 93.8775 83.9341 93.9585 83.9313C95.6848 83.8757 97.4204 83.4019 99.1178 82.5222C100.351 81.8793 101.637 81.1309 102.68 80.0147C102.911 79.7665 103.118 79.4858 103.3 79.2381L103.318 79.214C103.398 79.1047 103.48 78.9947 103.564 78.886C103.609 78.8274 103.629 78.7517 103.617 78.6756C103.604 78.6022 103.561 78.5369 103.489 78.4897C103.47 78.4797 103.029 78.2431 102.626 78.0872C99.9263 77.0452 97.2011 76.9385 94.6014 77.7754C93.7503 78.0486 92.9493 78.4588 92.1695 79.0258C93.6118 77.351 94.9472 75.5149 96.1597 73.5394C96.1728 73.5185 96.2073 73.4621 96.2184 73.4518C96.3244 73.3843 96.4329 73.3204 96.5412 73.2573C96.7351 73.1436 96.936 73.026 97.1246 72.886C97.2838 72.7673 97.3285 72.7642 97.4894 72.8676C97.7169 73.0152 97.9815 73.0919 98.2122 73.1522C99.5616 73.4974 100.922 73.3254 102.426 72.6197C103.801 71.976 104.857 70.9585 105.795 69.9552C107.159 68.4916 108.05 67.1711 108.6 65.7992C108.715 65.5113 108.798 65.2136 108.883 64.9023C108.919 64.7717 108.955 64.6411 108.993 64.5127C109.035 64.3748 108.962 64.2289 108.825 64.1808L108.713 64.1722C108.156 64.1722 103.195 64.2536 100.293 67.0663C99.662 67.6783 99.0961 68.3287 98.5794 69.0408C99.7274 66.6122 100.701 64.0527 101.485 61.3959L101.497 61.357C101.506 61.3245 101.521 61.2753 101.53 61.262L102.289 60.2208C102.317 60.1791 102.321 60.1791 102.365 60.1791C102.385 60.1791 102.407 60.1805 102.431 60.1819L102.594 60.1916C103.158 60.2267 103.491 60.2216 103.764 60.1788C104.845 60.0085 105.82 59.4648 106.746 58.5165C108.911 56.2986 110.401 53.5315 111.301 50.0579C111.398 49.6858 111.425 49.31 111.454 48.9114C111.467 48.7308 111.481 48.5446 111.501 48.3522C111.51 48.26 111.474 48.1718 111.404 48.1143Z" fill="#1C1D28"/>
<path d="M37.9519 88.4994C36.1516 88.1022 34.3609 87.5233 32.4768 86.7298C32.4543 86.7192 32.3984 86.6561 32.3808 86.5994C32.193 85.9599 32.1302 85.3157 32.188 84.6297C32.5569 80.2503 29.9464 75.6358 25.9815 73.6575C25.8972 73.6147 25.8092 73.5777 25.708 73.5363L25.6139 73.4974C25.5246 73.4593 25.4158 73.4751 25.3438 73.5329C25.2659 73.593 25.2272 73.6908 25.2431 73.7889L25.3516 74.4604C25.4478 75.0546 25.5422 75.6361 25.6326 76.2181L25.6554 76.3704C25.91 78.0243 26.1732 79.7347 26.6859 81.3779C27.1486 82.8604 27.8625 84.0302 28.8555 84.9265C26.7577 83.6908 24.8029 82.2058 23.0276 80.4979C22.9903 80.4621 22.9461 80.3671 22.9397 80.2887L22.8921 79.1166C22.8918 79.0749 22.8913 78.9643 22.9149 78.9096C23.7894 76.8745 24.0133 74.5838 23.6002 71.907C23.2018 69.3253 22.0983 66.9512 20.3202 64.8503C20.1121 64.6043 19.9285 64.4798 19.7743 64.4798C19.7368 64.4798 19.7028 64.4873 19.6761 64.5012C19.5943 64.5418 19.539 64.6205 19.5281 64.7113L19.4805 65.1202C19.4438 65.4237 19.4085 65.7216 19.3768 66.0201C19.322 66.546 19.2619 67.071 19.2015 67.5963L19.1929 67.6722C19.0426 68.9837 18.8868 70.34 18.8045 71.698C18.7088 73.2822 18.7371 75.1324 19.6745 76.844C19.6795 76.8526 19.6839 76.8617 19.6889 76.8704C18.386 75.2428 17.1966 73.4912 16.1355 71.6352C16.0417 71.4701 16.0337 71.3253 16.0512 71.1152C16.1266 70.2266 16.54 69.5046 16.9754 68.857C17.8165 67.603 18.3256 66.1207 18.6264 64.0507C19.0468 61.1557 18.6222 58.2516 17.3652 55.4184C17.3307 55.3403 17.2904 55.2649 17.2473 55.1841L17.149 54.999C17.102 54.9086 17.0016 54.8491 16.8956 54.8539C16.7899 54.8594 16.6967 54.9264 16.6583 55.0237C16.3533 55.7919 16.0584 56.532 15.7655 57.2666L15.5782 57.736C14.9533 59.3039 14.2525 61.1343 13.8452 63.0229C13.558 64.3556 13.5405 65.6419 13.7923 66.8664C12.8152 64.5432 12.012 62.0882 11.3968 59.5426C11.3899 59.5143 11.3876 59.4409 11.4486 59.2716C11.7363 58.4851 12.2601 57.7719 12.924 57.2635C14.3771 56.1502 15.2015 54.6026 15.8161 53.2357C17.0745 50.4403 17.4159 47.4706 16.8594 44.1562C16.8536 44.1215 16.843 44.087 16.8305 44.0495L16.8205 44.0195C16.7963 43.9453 16.7412 43.8852 16.6683 43.8538C16.5971 43.8241 16.5075 43.8296 16.4521 43.8569C16.3965 43.8772 16.3122 43.908 16.2573 43.9883C15.9424 44.4086 15.6227 44.8327 15.3028 45.2566L15.2491 45.328C14.4422 46.3983 13.6078 47.5045 12.806 48.6065C11.877 49.8797 11.221 51.1173 10.8 52.3903C10.5969 53.0051 10.4642 53.5968 10.4016 54.1715C10.1343 52.1062 9.98262 49.9975 9.94952 47.8713C9.94173 47.3638 10.0063 46.9606 10.3532 46.5189C10.7205 46.0481 11.0635 45.7852 11.5365 45.6118C13.4799 44.9025 14.7266 43.4036 15.5955 42.177C16.9991 40.1929 17.8223 37.8841 18.1123 35.1186C18.1431 34.834 18.1607 34.5461 18.1787 34.2415L18.1832 34.1723C18.1918 34.0241 18.201 33.8699 18.2127 33.7065C18.2199 33.5981 18.1618 33.4964 18.0647 33.4472C17.9706 33.3999 17.8502 33.4138 17.7684 33.483L17.5377 33.6803C17.4509 33.7543 17.3766 33.8176 17.2996 33.8793C16.9293 34.1765 16.5576 34.4705 16.185 34.7654L16.1461 34.796C15.3284 35.443 14.4826 36.112 13.6749 36.8029C12.1077 38.1381 11.0986 39.4672 10.499 40.9861C10.4 41.2365 10.3132 41.4842 10.2386 41.7293C10.4851 39.3157 10.8855 36.9388 11.4352 34.6328C11.502 34.3507 11.5393 34.2679 11.6764 34.2229C11.7627 34.1937 11.8431 34.1375 11.9018 34.0681C12.3005 33.6153 12.8255 33.5436 13.3341 33.5333C15.0312 33.4936 16.3773 32.6478 17.4698 31.8257C20.1488 29.8101 21.9934 24.6961 21.9934 24.5227C21.9934 24.4324 21.9484 24.3482 21.8719 24.2973C21.7965 24.2476 21.6946 24.2406 21.6178 24.2748C21.0597 24.5113 20.5016 24.7417 19.9237 24.9805C18.6523 25.5072 17.3377 26.0514 16.0751 26.6464C14.8045 27.247 13.8004 28.0502 13.0826 29.0386C13.7667 27.0967 14.5599 25.1928 15.448 23.3632C15.5501 23.1658 16.0298 22.9563 16.7175 22.9563C16.9412 22.9563 17.158 22.9802 17.3452 23.0252C18.9611 23.4121 20.5634 23.1775 22.3368 22.2923C24.151 21.3862 25.6562 19.9049 26.9383 17.7623C26.9627 17.7209 27.0109 17.5944 27.0368 17.5235C27.0693 17.4368 27.0562 17.3412 27.0023 17.2687C26.9522 17.1997 26.872 17.1586 26.7699 17.1586C26.7691 17.1586 26.7686 17.1586 26.7677 17.1586L26.1273 17.1989C25.7347 17.2236 25.3535 17.2478 24.9724 17.2673L24.5653 17.2878C23.35 17.349 22.093 17.4118 20.8633 17.7045C19.4608 18.0413 18.4311 18.5585 17.6415 19.3256C18.576 17.7717 19.5768 16.2931 20.631 14.9082C20.6594 14.8715 20.7954 14.8153 20.907 14.7967C20.9626 14.7837 21.1652 14.7411 21.4345 14.7411C21.7917 14.7411 22.1044 14.8137 22.3696 14.9593C24.0542 15.7823 25.9461 15.8434 28.0002 15.1386C29.6851 14.5635 31.1121 13.4954 32.363 11.8742C32.4036 11.822 32.4404 11.765 32.4738 11.705C32.5119 11.6358 32.5144 11.5596 32.481 11.4901C32.3842 11.2873 31.9652 11.1919 31.7888 11.1602C31.3559 11.0846 30.8654 10.9985 30.379 10.9326C30.1562 10.9015 29.933 10.869 29.7094 10.8359L29.6807 10.8314C28.9228 10.7197 28.1393 10.6041 27.35 10.5643C25.9077 10.4907 24.6271 10.7847 23.579 11.4357C24.2838 10.6864 25.0038 9.9754 25.735 9.30753C25.9662 9.09686 26.2277 8.88452 26.5841 8.61798C26.6116 8.59685 26.6817 8.57212 26.7677 8.56712C29.2937 8.46845 31.3956 7.35449 33.193 5.16215C34.172 3.96871 34.9227 2.46342 35.4883 0.560132L35.5078 0.494817C35.5681 0.294705 35.6015 0.184643 35.4627 0.055682C35.3556 -0.0438182 35.1669 -0.0143564 34.6767 0.179641C34.2316 0.35057 33.7836 0.516497 33.3237 0.68687C32.3997 1.02901 31.4441 1.38281 30.5218 1.78248C28.9804 2.45175 27.7496 3.4662 26.864 4.79723C26.1896 5.81002 25.923 6.82753 26.0485 7.90258C26.0477 7.91453 26.0371 7.94315 26.0354 7.94649C24.4265 9.33421 22.8885 10.8965 21.3093 12.7559C22.3624 11.1475 23.0487 9.29558 23.3932 7.14882C23.7404 4.98455 23.7624 3.0582 23.4608 1.25997C23.4416 1.1474 23.4157 1.03484 23.3826 0.89393L23.3334 0.676863C23.3111 0.583756 23.241 0.508436 23.1489 0.479531C23.0568 0.452293 22.9536 0.476473 22.8849 0.541788C22.7747 0.645457 22.6667 0.74329 22.5613 0.838343L22.487 0.905325C22.2171 1.14824 21.9623 1.37753 21.7316 1.63685C19.4906 4.16243 18.1835 6.83003 17.7358 9.79225C17.5319 11.1311 17.6165 12.2709 17.9946 13.2759C18.1198 13.6088 18.3151 13.9062 18.5096 14.2014C18.5986 14.3362 18.6876 14.4715 18.7691 14.6105C18.8292 14.7103 18.8342 14.7361 18.834 14.7314C18.797 15.1275 18.7438 15.5688 18.672 16.0986C18.669 16.1052 18.659 16.1208 18.627 16.163L18.6011 16.1989C17.3755 17.9007 16.2448 19.6947 15.2274 21.5516C15.6275 20.1647 15.946 18.4093 15.9235 16.3695C15.8962 13.9229 15.3323 11.7408 14.1988 9.69775C14.154 9.61826 14.0728 9.56657 13.959 9.55878C13.8763 9.55878 13.7968 9.59964 13.7447 9.6694C13.7108 9.71665 13.6763 9.76112 13.6435 9.80336C13.5703 9.89786 13.5018 9.98736 13.4406 10.083C12.5381 11.4968 12.054 13.0557 11.7326 14.2561C11.1453 16.4576 10.8754 18.2959 10.8832 20.0416C10.8877 21.5255 11.1584 22.6661 11.7354 23.6314C11.9149 23.9318 12.1408 24.1948 12.3678 24.4593C12.4883 24.5997 12.6121 24.744 12.7242 24.8918C12.8027 24.9946 12.8405 25.0994 12.8427 25.1578C12.8575 25.5097 12.8497 25.8674 12.8422 26.2131L12.8369 26.4521C12.8361 26.4933 12.8266 26.5405 12.8124 26.5766C12.0879 28.3301 11.4511 30.1525 10.908 32.0241C10.9878 31.3868 11.0329 30.7698 11.0443 30.1678C11.11 26.7509 10.0608 23.6995 7.92518 21.0972L7.48002 20.5555C7.42855 20.4918 7.35232 20.4557 7.27108 20.4557L7.22656 20.4596C7.13141 20.4755 7.05128 20.5413 7.01818 20.6311C6.97756 20.7392 6.93777 20.8412 6.8991 20.9399C6.82453 21.1305 6.75414 21.3112 6.6946 21.4949C6.23637 22.9288 6.01157 24.4952 5.96594 26.573L5.96511 26.6136C5.93089 28.1253 5.88387 30.1962 6.50541 32.1778C7.11722 34.1287 8.19617 35.1145 8.40539 35.2915L8.42765 35.3115C8.99716 35.8193 9.36803 36.2837 9.44482 36.5853C9.47571 36.707 9.50714 36.8291 9.54387 36.9497C9.70635 37.4864 9.6048 37.9978 9.49518 38.55C9.44065 38.8288 9.38389 39.1167 9.36414 39.4122C9.28568 40.5945 9.18941 41.7968 9.09621 42.9594L9.08786 43.067C9.06394 43.3635 9.04001 43.6601 9.01636 43.9567C8.77876 41.2963 7.8968 38.878 6.37938 36.7393C5.45012 35.4308 4.34224 34.3113 3.0858 33.411C3.03154 33.3721 2.97451 33.3374 2.89828 33.2921C2.86127 33.2707 2.81843 33.2451 2.7664 33.2126C2.68794 33.1656 2.58722 33.1614 2.50626 33.2009C2.42335 33.2412 2.36632 33.3232 2.35686 33.416C2.33988 33.5842 2.32013 33.747 2.29926 33.916C2.25725 34.2621 2.21747 34.5889 2.2158 34.9247C2.19716 38.4049 2.93417 41.6662 4.40707 44.6167C4.81745 45.44 5.3597 46.1521 6.01936 46.734C6.67346 47.308 7.37931 47.6465 8.17585 47.7682C8.19338 47.7713 8.23512 47.7966 8.24152 47.8016C8.28464 47.888 8.32943 47.9747 8.37423 48.0617C8.53337 48.3688 8.6978 48.6865 8.7796 49.005C8.84776 49.2744 8.84776 49.5687 8.84776 49.8805C8.84776 49.9948 8.84776 50.1098 8.85138 50.2227C8.92789 52.9186 9.02833 53.8575 9.46012 56.2663C9.19665 55.5501 8.86584 54.8319 8.43877 54.141C6.70935 51.3447 4.51224 49.4467 1.72196 48.3391C1.54445 48.2677 1.36639 48.2163 1.15995 48.1562L1.11877 48.144C1.03503 48.1195 0.946274 48.0934 0.851401 48.0645C0.765709 48.0364 0.668053 48.0556 0.59822 48.1134C0.528664 48.171 0.492217 48.2591 0.501399 48.3508C0.521987 48.542 0.536176 48.7279 0.549253 48.9094C0.577909 49.3074 0.604897 49.6832 0.70144 50.0551C1.60176 53.529 3.09192 56.2958 5.25676 58.514C6.1824 59.4623 7.15784 60.0059 8.23873 60.1763C8.51139 60.2188 8.8447 60.2241 9.40893 60.1891L9.57141 60.1794C9.59618 60.178 9.61788 60.1766 9.63763 60.1766C9.68215 60.1766 9.68576 60.1766 9.71665 60.2222L10.4726 61.2591C10.4823 61.2727 10.4965 61.3219 10.5062 61.3558L10.5174 61.3931C11.302 64.0501 12.2754 66.6093 13.4234 69.0382C12.9067 68.3259 12.3406 67.6755 11.7095 67.0638C8.8077 64.2511 3.84645 64.1696 3.29029 64.1696L3.22101 64.1702L3.17733 64.1783C3.041 64.2266 2.96727 64.3723 3.00929 64.5093C3.04796 64.6385 3.08413 64.7691 3.12558 64.9226C3.20487 65.2108 3.28723 65.5084 3.40269 65.7964C3.95246 67.1688 4.8436 68.489 6.20772 69.9526C7.14504 70.9559 8.20173 71.9735 9.57587 72.6169C11.0808 73.3228 12.4396 73.4951 13.7909 73.1494C14.0207 73.0891 14.285 73.0126 14.5123 72.8653C14.6743 72.7617 14.7185 72.765 14.8777 72.8834C15.0663 73.0235 15.2669 73.1411 15.4616 73.255C15.5693 73.3181 15.6778 73.3817 15.7791 73.4457C15.7952 73.4593 15.8297 73.5157 15.8425 73.5366C17.055 75.5121 18.3908 77.3481 19.833 79.023C19.0529 78.456 18.2519 78.0457 17.4011 77.7725C14.8011 76.9357 12.076 77.0421 9.37694 78.0847C8.97407 78.2406 8.53253 78.4768 8.50304 78.4935C8.44128 78.5341 8.39871 78.5997 8.38536 78.675C8.37367 78.7489 8.39287 78.8245 8.43794 78.8823C8.52224 78.9918 8.60376 79.1019 8.68444 79.2111L8.70225 79.235C8.88448 79.4829 9.09093 79.7634 9.3224 80.0118C10.3649 81.1283 11.6506 81.8768 12.8848 82.5194C14.5819 83.399 16.3174 83.8729 18.0435 83.9285C18.1248 83.9313 18.206 83.9329 18.287 83.9329C19.8748 83.9329 21.1143 83.4101 22.0697 82.3409C22.0814 82.3326 22.1228 82.3167 22.1456 82.3165C22.5107 82.3426 22.8576 82.3957 23.1169 82.4388C23.1578 82.446 23.2082 82.4704 23.2396 82.4988C24.8357 83.9104 26.5262 85.1494 28.2921 86.2039C28.0244 86.1247 27.7487 86.0558 27.4666 86.0005C25.5794 85.6381 23.6536 85.8654 21.5388 86.7048C20.1121 87.2729 18.7853 88.1075 17.4824 89.2562C17.375 89.3504 17.3599 89.5124 17.4484 89.6247C17.9094 90.2109 18.5093 90.5391 19.0354 90.7826C20.3185 91.3782 21.767 91.7595 23.465 91.9491C23.47 91.9494 24.0156 91.9966 24.7807 91.9966C25.3329 91.9966 25.8468 91.9719 26.3073 91.9232C26.7474 91.8771 27.1864 91.8018 27.6124 91.6995C29.5688 91.2237 30.8946 90.2454 31.6541 88.7265C31.6677 88.7134 31.7262 88.6795 31.8002 88.6614C32.1532 88.5739 32.471 88.5122 32.7731 88.4719C32.8443 88.4605 32.9331 88.4796 33.0449 88.5247C34.396 89.0447 35.8258 89.478 37.2917 89.812C37.3123 89.8171 37.3337 89.8196 37.3551 89.8196C37.4536 89.8196 37.5443 89.7654 37.5922 89.677C37.7321 89.4168 37.9027 89.1673 38.0988 88.9352C38.1603 88.8621 38.1787 88.7648 38.1484 88.6748C38.1194 88.5875 38.046 88.5213 37.9519 88.4994Z" fill="#1C1D28"/>
</svg>
