<svg width="112" height="92" viewBox="0 0 112 92" fill="none" xmlns="http://www.w3.org/2000/svg">
<path d="M111.154 48.1143C111.084 48.0565 110.982 48.0382 110.903 48.0648C110.806 48.0946 110.718 48.1204 110.634 48.1449L110.593 48.1568C110.386 48.2172 110.208 48.2688 110.031 48.3397C107.24 49.4476 105.043 51.3456 103.313 54.1419C102.886 54.8328 102.556 55.551 102.292 56.2672C102.724 53.8581 102.824 52.9195 102.901 50.2238C102.905 50.1107 102.905 49.9956 102.905 49.8814C102.905 49.5696 102.905 49.275 102.973 49.0062C103.054 48.6877 103.219 48.37 103.378 48.0626C103.423 47.9756 103.468 47.8886 103.505 47.8122C103.517 47.7972 103.559 47.7719 103.575 47.7694C104.373 47.6477 105.079 47.3091 105.733 46.7347C106.393 46.1529 106.935 45.4409 107.345 44.6176C108.818 41.6671 109.555 38.4058 109.537 34.9255C109.535 34.5898 109.496 34.263 109.452 33.9075C109.432 33.7482 109.412 33.5853 109.396 33.4166C109.386 33.3241 109.329 33.2418 109.247 33.2018C109.165 33.1623 109.067 33.1651 108.984 33.2149C108.934 33.246 108.892 33.2713 108.853 33.2938C108.778 33.3383 108.721 33.373 108.667 33.4119C107.411 34.3116 106.303 35.4317 105.373 36.7402C103.856 38.8789 102.974 41.2972 102.736 43.9575C102.713 43.661 102.689 43.3644 102.665 43.0679L102.657 42.9603C102.563 41.7977 102.467 40.5954 102.389 39.4131C102.369 39.1137 102.311 38.8224 102.256 38.5406C102.148 37.9989 102.047 37.4873 102.209 36.9511C102.246 36.8299 102.277 36.7079 102.309 36.5862C102.385 36.2846 102.756 35.8202 103.326 35.3124L103.347 35.2932C103.557 35.1154 104.636 34.1293 105.248 32.1787C105.87 30.1971 105.822 28.1265 105.788 26.6145L105.787 26.5742C105.742 24.4958 105.517 22.9297 105.058 21.4952C104.999 21.3118 104.929 21.1309 104.854 20.9408C104.816 20.8418 104.776 20.7395 104.735 20.6325C104.702 20.5419 104.622 20.4761 104.528 20.4605L104.482 20.4563C104.401 20.4563 104.325 20.4927 104.274 20.5556L103.828 21.0978C101.693 23.6998 100.643 26.7515 100.709 30.1684C100.72 30.7702 100.766 31.3875 100.845 32.0248C100.303 30.1534 99.666 28.3319 98.9421 26.5795C98.927 26.5411 98.9173 26.4936 98.9162 26.4533L98.9112 26.2137C98.9037 25.868 98.8959 25.5103 98.9106 25.1584C98.9129 25.1 98.9507 24.9953 99.0294 24.8921C99.1413 24.7446 99.2654 24.6003 99.3939 24.4502C99.6129 24.1956 99.8391 23.9327 100.018 23.6326C100.595 22.667 100.866 21.5264 100.871 20.0425C100.878 18.2957 100.609 16.4574 100.021 14.257C99.7002 13.0566 99.2156 11.4971 98.313 10.0833C98.2518 9.98825 98.1834 9.89875 98.1105 9.80398C98.0776 9.76201 98.0431 9.71726 98.0081 9.66918C97.9569 9.60053 97.8862 9.56051 97.7721 9.56051C97.6812 9.56718 97.5999 9.61888 97.5546 9.6992C96.4217 11.7417 95.8574 13.9238 95.8307 16.3702C95.8079 18.4099 96.1267 20.1651 96.5266 21.5522C95.5091 19.6954 94.3784 17.9013 93.1528 16.1995L93.1247 16.1609C93.0969 16.1239 93.0852 16.1058 93.0872 16.1186C93.0101 15.568 92.9567 15.1275 92.9197 14.744C92.9205 14.7381 92.9278 14.7059 92.9851 14.6103C93.066 14.4724 93.1548 14.3373 93.2491 14.1945C93.4383 13.9071 93.6336 13.6097 93.7588 13.2768C94.1366 12.2718 94.2215 11.1319 94.0176 9.79342C93.5699 6.83092 92.2625 4.16332 90.0217 1.63774C89.7911 1.37843 89.5362 1.14913 89.2666 0.906774L89.1921 0.839236C89.0866 0.743905 88.9784 0.646351 88.8691 0.543238C88.7995 0.47709 88.6999 0.452354 88.6034 0.480703C88.5121 0.509608 88.4417 0.585205 88.42 0.679147L88.371 0.893712C88.3377 1.03601 88.3118 1.1483 88.2926 1.26114C87.991 3.05937 88.013 4.98545 88.3602 7.14999C88.7046 9.29675 89.391 11.1483 90.4441 12.7567C88.8649 10.8979 87.3288 9.33705 85.7235 7.95378C85.7163 7.94433 85.7057 7.9157 85.7049 7.90847C85.8303 6.8287 85.5638 5.81147 84.8894 4.79868C84.0038 3.46765 82.7732 2.4532 81.2319 1.78393C80.3096 1.38426 79.3539 1.03046 78.4182 0.683872C77.97 0.517668 77.5218 0.35202 77.0602 0.17442C76.5964 -0.00984963 76.3981 -0.0426459 76.2904 0.0568543C76.1518 0.185815 76.1852 0.295878 76.2456 0.49599L76.2651 0.561303C76.8307 2.46459 77.5813 3.96988 78.5604 5.16305C80.3577 7.35566 82.4597 8.46962 84.9832 8.56801C85.0716 8.57329 85.1417 8.59775 85.1704 8.61998C85.5257 8.88569 85.7872 9.09831 86.0184 9.30898C86.7496 9.97658 87.4696 10.6878 88.1741 11.4368C87.1263 10.7865 85.8456 10.493 84.4033 10.5658C83.614 10.6055 82.8305 10.7212 82.073 10.8329L82.044 10.8373C81.82 10.8701 81.5972 10.9026 81.3749 10.9341C80.888 10.9999 80.3972 11.0861 79.9638 11.1617C79.7882 11.1931 79.3689 11.2884 79.2724 11.4916C79.239 11.5611 79.2418 11.6372 79.2796 11.7064C79.313 11.7667 79.3497 11.8234 79.3898 11.8751C80.641 13.4969 82.0682 14.565 83.7531 15.14C85.8075 15.8449 87.6944 15.7868 89.3899 14.9577C89.6492 14.8151 89.9619 14.7429 90.3192 14.7429C90.5888 14.7429 90.791 14.7854 90.8581 14.8007C90.9585 14.8173 91.0948 14.8735 91.1227 14.9096C92.1771 16.2946 93.1779 17.7737 94.1124 19.3276C93.3228 18.5605 92.2931 18.0433 90.8903 17.7065C89.6609 17.4138 88.4039 17.351 87.1886 17.2898L86.7816 17.2693C86.4004 17.2498 86.0192 17.2256 85.6267 17.2009L84.9684 17.1603C84.8833 17.1603 84.8023 17.2015 84.7528 17.2698C84.698 17.3435 84.6849 17.4391 84.7172 17.525C84.7436 17.5967 84.7917 17.7231 84.8165 17.7654C86.0983 19.9071 87.6034 21.3885 89.4174 22.2946C91.1908 23.1795 92.7931 23.4135 94.4093 23.0275C94.5963 22.9825 94.813 22.9586 95.037 22.9586C95.7244 22.9586 96.2038 23.1681 96.3045 23.3621C97.1937 25.1945 97.9872 27.0987 98.6716 29.0409C97.9538 28.0522 96.95 27.2493 95.6791 26.6487C94.4165 26.0534 93.1019 25.5092 91.8085 24.9736C91.2526 24.744 90.6945 24.5136 90.1389 24.2779C90.0562 24.2418 89.9586 24.2493 89.8815 24.3001C89.8058 24.3505 89.7608 24.4344 89.7608 24.5247C89.7608 24.6982 91.6054 29.8124 94.2844 31.8277C95.3772 32.6498 96.7233 33.4956 98.4207 33.5353C98.9287 33.5456 99.454 33.6173 99.8507 34.0678C99.9114 34.1395 99.9918 34.1954 100.079 34.2252C100.215 34.2696 100.252 34.3524 100.319 34.6348C100.869 36.9406 101.269 39.3172 101.516 41.7305C101.441 41.4856 101.355 41.2382 101.255 40.9878C100.656 39.4689 99.6465 38.1398 98.0796 36.8049C97.2719 36.114 96.4261 35.445 95.6081 34.7977L95.5692 34.7671C95.1967 34.4722 94.825 34.1785 94.4544 33.8811C94.3779 33.8196 94.3033 33.7563 94.2168 33.6823L93.9856 33.4845C93.9046 33.4161 93.7841 33.4019 93.6895 33.4492C93.5924 33.4984 93.5343 33.6001 93.5418 33.7087C93.5532 33.8719 93.5624 34.0261 93.571 34.1743L93.5755 34.2435C93.5938 34.5484 93.6111 34.836 93.642 35.1201C93.9319 37.8858 94.7551 40.1949 96.1587 42.179C97.0276 43.4056 98.2741 44.9047 100.218 45.6137C100.691 45.7872 101.034 46.0498 101.401 46.5212C101.748 46.9626 101.812 47.3658 101.805 47.8733C101.772 49.9993 101.62 52.1082 101.353 54.1735C101.29 53.5988 101.158 53.0071 100.954 52.3923C100.533 51.1193 99.8772 49.8817 98.9482 48.6088C98.1464 47.5065 97.312 46.4003 96.5051 45.33L96.4514 45.2585C96.1315 44.8347 95.8118 44.4103 95.5005 43.9951C95.442 43.9097 95.3577 43.8792 95.3091 43.8622C95.2401 43.8286 95.1577 43.8252 95.0845 43.8564C95.0127 43.8869 94.9577 43.9473 94.9335 44.0212L94.924 44.0501C94.9106 44.089 94.9001 44.1235 94.8945 44.1579C94.3381 47.4726 94.6794 50.4423 95.9378 53.2377C96.5524 54.6046 97.3768 56.1521 98.8302 57.2655C99.4938 57.7739 100.018 58.4871 100.305 59.2733C100.366 59.4426 100.364 59.516 100.357 59.5443C99.742 62.0896 98.9385 64.5446 97.9616 66.8681C98.2131 65.6436 98.1959 64.3573 97.9088 63.0246C97.5012 61.1358 96.8006 59.3053 96.1757 57.7378L95.9885 57.2683C95.6955 56.5337 95.4006 55.7933 95.0959 55.026C95.0573 54.9279 94.9641 54.8609 94.8397 54.8548C94.7418 54.8548 94.6516 54.9106 94.6049 55.0012L94.5067 55.1858C94.4635 55.2667 94.4232 55.342 94.3887 55.4198C93.1317 58.2531 92.7071 61.1575 93.1275 64.0524C93.428 66.1225 93.9372 67.6047 94.7785 68.8587C95.2139 69.5069 95.6276 70.2289 95.7027 71.1169C95.7205 71.327 95.7122 71.4718 95.6184 71.6367C94.5573 73.493 93.3676 75.2448 92.0647 76.8724C92.0697 76.8635 92.0745 76.8546 92.0795 76.8457C93.0168 75.1345 93.0452 73.2842 92.9495 71.6997C92.8668 70.3415 92.711 68.9852 92.5611 67.6739L92.5524 67.598C92.4921 67.0727 92.432 66.5477 92.3772 66.0216C92.3454 65.7233 92.3101 65.4251 92.2737 65.1225L92.2255 64.7128C92.215 64.6222 92.1596 64.5438 92.08 64.5043C91.932 64.4271 91.6925 64.5463 91.4337 64.852C89.6556 66.9529 88.5522 69.327 88.1538 71.9088C87.7406 74.5855 87.9646 76.8763 88.8393 78.9118C88.8627 78.966 88.8621 79.0767 88.8618 79.1136L88.8148 80.2848C88.8079 80.369 88.7633 80.4641 88.7266 80.4994C86.951 82.2076 84.9962 83.6926 82.8984 84.9285C83.8914 84.0319 84.6053 82.8621 85.068 81.3796C85.5808 79.7365 85.844 78.0263 86.0991 76.3682L86.1213 76.2206C86.2118 75.6381 86.3061 75.0566 86.4024 74.4624L86.5111 73.7906C86.5267 73.6928 86.488 73.595 86.4121 73.5363C86.3367 73.4763 86.2276 73.4618 86.1408 73.4991L86.046 73.5383C85.9447 73.5797 85.8565 73.6167 85.7733 73.6592C81.8075 75.6378 79.197 80.2526 79.5659 84.6317C79.6238 85.3176 79.5609 85.9619 79.3734 86.6C79.3558 86.6581 79.2996 86.7212 79.2768 86.7318C77.3933 87.5253 75.6024 88.1042 73.8003 88.5017C73.7077 88.5231 73.6342 88.5892 73.6042 88.6784C73.5738 88.7682 73.5922 88.8657 73.654 88.9391C73.8498 89.1709 74.0204 89.4202 74.1606 89.6812C74.2182 89.7879 74.3554 89.8427 74.458 89.816C75.9262 89.4814 77.356 89.0481 78.709 88.5272C78.8183 88.4833 78.9018 88.4625 78.98 88.4753C79.281 88.5153 79.599 88.577 79.9521 88.6645C80.025 88.6823 80.0853 88.7159 80.0865 88.7129C80.8577 90.2487 82.1831 91.2271 84.1399 91.7032C84.5655 91.8052 85.0046 91.8805 85.4447 91.9266C85.9055 91.9753 86.4193 92 86.9716 92C87.7367 92 88.2823 91.9528 88.289 91.9522C89.985 91.7626 91.4334 91.3813 92.7163 90.7863C93.2427 90.5425 93.8426 90.2143 94.3036 89.6281C94.3918 89.5158 94.377 89.3538 94.2699 89.2596C92.9667 88.1109 91.6399 87.2762 90.2129 86.7081C88.0987 85.8688 86.1728 85.6414 84.2851 86.0041C84.003 86.0589 83.7275 86.1278 83.4599 86.207C85.2258 85.1526 86.9165 83.9133 88.5132 82.5014C88.5438 82.4736 88.5942 82.4491 88.6334 82.4421C88.8947 82.3988 89.2416 82.3454 89.5966 82.3199C89.6294 82.3199 89.6712 82.3357 89.6759 82.3374C90.638 83.413 91.8775 83.9358 93.4653 83.9358C93.5462 83.9358 93.6275 83.9341 93.7085 83.9313C95.4348 83.8757 97.1704 83.4019 98.8678 82.5222C100.101 81.8793 101.387 81.1309 102.43 80.0147C102.661 79.7665 102.868 79.4858 103.05 79.2381L103.068 79.214C103.148 79.1047 103.23 78.9947 103.314 78.886C103.359 78.8274 103.379 78.7517 103.367 78.6756C103.354 78.6022 103.311 78.5369 103.239 78.4897C103.22 78.4797 102.779 78.2431 102.376 78.0872C99.6763 77.0452 96.9511 76.9385 94.3514 77.7754C93.5003 78.0486 92.6993 78.4588 91.9195 79.0258C93.3618 77.351 94.6972 75.5149 95.9097 73.5394C95.9228 73.5185 95.9573 73.4621 95.9684 73.4518C96.0744 73.3843 96.1829 73.3204 96.2912 73.2573C96.4851 73.1436 96.686 73.026 96.8746 72.886C97.0338 72.7673 97.0785 72.7642 97.2394 72.8676C97.4669 73.0152 97.7315 73.0919 97.9622 73.1522C99.3116 73.4974 100.672 73.3254 102.176 72.6197C103.551 71.976 104.607 70.9585 105.545 69.9552C106.909 68.4916 107.8 67.1711 108.35 65.7992C108.465 65.5113 108.548 65.2136 108.633 64.9023C108.669 64.7717 108.705 64.6411 108.743 64.5127C108.785 64.3748 108.712 64.2289 108.575 64.1808L108.463 64.1722C107.906 64.1722 102.945 64.2536 100.043 67.0663C99.412 67.6783 98.8461 68.3287 98.3294 69.0408C99.4774 66.6122 100.451 64.0527 101.235 61.3959L101.247 61.357C101.256 61.3245 101.271 61.2753 101.28 61.262L102.039 60.2208C102.067 60.1791 102.071 60.1791 102.115 60.1791C102.135 60.1791 102.157 60.1805 102.181 60.1819L102.344 60.1916C102.908 60.2267 103.241 60.2216 103.514 60.1788C104.595 60.0085 105.57 59.4648 106.496 58.5165C108.661 56.2986 110.151 53.5315 111.051 50.0579C111.148 49.6858 111.175 49.31 111.204 48.9114C111.217 48.7308 111.231 48.5446 111.251 48.3522C111.26 48.26 111.224 48.1718 111.154 48.1143Z" fill="#1C1D28"/>
<path d="M37.7019 88.4994C35.9016 88.1022 34.1109 87.5233 32.2268 86.7298C32.2043 86.7192 32.1484 86.6561 32.1308 86.5994C31.943 85.9599 31.8802 85.3157 31.938 84.6297C32.3069 80.2503 29.6964 75.6358 25.7315 73.6575C25.6472 73.6147 25.5592 73.5777 25.458 73.5363L25.3639 73.4974C25.2746 73.4593 25.1658 73.4751 25.0938 73.5329C25.0159 73.593 24.9772 73.6908 24.9931 73.7889L25.1016 74.4604C25.1978 75.0546 25.2922 75.6361 25.3826 76.2181L25.4054 76.3704C25.66 78.0243 25.9232 79.7347 26.4359 81.3779C26.8986 82.8604 27.6125 84.0302 28.6055 84.9265C26.5077 83.6908 24.5529 82.2058 22.7776 80.4979C22.7403 80.4621 22.6961 80.3671 22.6897 80.2887L22.6421 79.1166C22.6418 79.0749 22.6413 78.9643 22.6649 78.9096C23.5394 76.8745 23.7633 74.5838 23.3502 71.907C22.9518 69.3253 21.8483 66.9512 20.0702 64.8503C19.8621 64.6043 19.6785 64.4798 19.5243 64.4798C19.4868 64.4798 19.4528 64.4873 19.4261 64.5012C19.3443 64.5418 19.289 64.6205 19.2781 64.7113L19.2305 65.1202C19.1938 65.4237 19.1585 65.7216 19.1268 66.0201C19.072 66.546 19.0119 67.071 18.9515 67.5963L18.9429 67.6722C18.7926 68.9837 18.6368 70.34 18.5545 71.698C18.4588 73.2822 18.4871 75.1324 19.4245 76.844C19.4295 76.8526 19.4339 76.8617 19.4389 76.8704C18.136 75.2428 16.9466 73.4912 15.8855 71.6352C15.7917 71.4701 15.7837 71.3253 15.8012 71.1152C15.8766 70.2266 16.29 69.5046 16.7254 68.857C17.5665 67.603 18.0756 66.1207 18.3764 64.0507C18.7968 61.1557 18.3722 58.2516 17.1152 55.4184C17.0807 55.3403 17.0404 55.2649 16.9973 55.1841L16.899 54.999C16.852 54.9086 16.7516 54.8491 16.6456 54.8539C16.5399 54.8594 16.4467 54.9264 16.4083 55.0237C16.1033 55.7919 15.8084 56.532 15.5155 57.2666L15.3282 57.736C14.7033 59.3039 14.0025 61.1343 13.5952 63.0229C13.308 64.3556 13.2905 65.6419 13.5423 66.8664C12.5652 64.5432 11.762 62.0882 11.1468 59.5426C11.1399 59.5143 11.1376 59.4409 11.1986 59.2716C11.4863 58.4851 12.0101 57.7719 12.674 57.2635C14.1271 56.1502 14.9515 54.6026 15.5661 53.2357C16.8245 50.4403 17.1659 47.4706 16.6094 44.1562C16.6036 44.1215 16.593 44.087 16.5805 44.0495L16.5705 44.0195C16.5463 43.9453 16.4912 43.8852 16.4183 43.8538C16.3471 43.8241 16.2575 43.8296 16.2021 43.8569C16.1465 43.8772 16.0622 43.908 16.0073 43.9883C15.6924 44.4086 15.3727 44.8327 15.0528 45.2566L14.9991 45.328C14.1922 46.3983 13.3578 47.5045 12.556 48.6065C11.627 49.8797 10.971 51.1173 10.55 52.3903C10.3469 53.0051 10.2142 53.5968 10.1516 54.1715C9.88426 52.1062 9.73262 49.9975 9.69952 47.8713C9.69173 47.3638 9.75627 46.9606 10.1032 46.5189C10.4705 46.0481 10.8135 45.7852 11.2865 45.6118C13.2299 44.9025 14.4766 43.4036 15.3455 42.177C16.7491 40.1929 17.5723 37.8841 17.8623 35.1186C17.8931 34.834 17.9107 34.5461 17.9287 34.2415L17.9332 34.1723C17.9418 34.0241 17.951 33.8699 17.9627 33.7065C17.9699 33.5981 17.9118 33.4964 17.8147 33.4472C17.7206 33.3999 17.6002 33.4138 17.5184 33.483L17.2877 33.6803C17.2009 33.7543 17.1266 33.8176 17.0496 33.8793C16.6793 34.1765 16.3076 34.4705 15.935 34.7654L15.8961 34.796C15.0784 35.443 14.2326 36.112 13.4249 36.8029C11.8577 38.1381 10.8486 39.4672 10.249 40.9861C10.15 41.2365 10.0632 41.4842 9.98859 41.7293C10.2351 39.3157 10.6355 36.9388 11.1852 34.6328C11.252 34.3507 11.2893 34.2679 11.4264 34.2229C11.5127 34.1937 11.5931 34.1375 11.6518 34.0681C12.0505 33.6153 12.5755 33.5436 13.0841 33.5333C14.7812 33.4936 16.1273 32.6478 17.2198 31.8257C19.8988 29.8101 21.7434 24.6961 21.7434 24.5227C21.7434 24.4324 21.6984 24.3482 21.6219 24.2973C21.5465 24.2476 21.4446 24.2406 21.3678 24.2748C20.8097 24.5113 20.2516 24.7417 19.6737 24.9805C18.4023 25.5072 17.0877 26.0514 15.8251 26.6464C14.5545 27.247 13.5504 28.0502 12.8326 29.0386C13.5167 27.0967 14.3099 25.1928 15.198 23.3632C15.3001 23.1658 15.7798 22.9563 16.4675 22.9563C16.6912 22.9563 16.908 22.9802 17.0952 23.0252C18.7111 23.4121 20.3134 23.1775 22.0868 22.2923C23.901 21.3862 25.4062 19.9049 26.6883 17.7623C26.7127 17.7209 26.7609 17.5944 26.7868 17.5235C26.8193 17.4368 26.8062 17.3412 26.7523 17.2687C26.7022 17.1997 26.622 17.1586 26.5199 17.1586C26.5191 17.1586 26.5186 17.1586 26.5177 17.1586L25.8773 17.1989C25.4847 17.2236 25.1035 17.2478 24.7224 17.2673L24.3153 17.2878C23.1 17.349 21.843 17.4118 20.6133 17.7045C19.2108 18.0413 18.1811 18.5585 17.3915 19.3256C18.326 17.7717 19.3268 16.2931 20.381 14.9082C20.4094 14.8715 20.5454 14.8153 20.657 14.7967C20.7126 14.7837 20.9152 14.7411 21.1845 14.7411C21.5417 14.7411 21.8544 14.8137 22.1196 14.9593C23.8042 15.7823 25.6961 15.8434 27.7502 15.1386C29.4351 14.5635 30.8621 13.4954 32.113 11.8742C32.1536 11.822 32.1904 11.765 32.2238 11.705C32.2619 11.6358 32.2644 11.5596 32.231 11.4901C32.1342 11.2873 31.7152 11.1919 31.5388 11.1602C31.1059 11.0846 30.6154 10.9985 30.129 10.9326C29.9062 10.9015 29.683 10.869 29.4594 10.8359L29.4307 10.8314C28.6728 10.7197 27.8893 10.6041 27.1 10.5643C25.6577 10.4907 24.3771 10.7847 23.329 11.4357C24.0338 10.6864 24.7538 9.9754 25.485 9.30753C25.7162 9.09686 25.9777 8.88452 26.3341 8.61798C26.3616 8.59685 26.4317 8.57212 26.5177 8.56712C29.0437 8.46845 31.1456 7.35449 32.943 5.16215C33.922 3.96871 34.6727 2.46342 35.2383 0.560132L35.2578 0.494817C35.3181 0.294705 35.3515 0.184643 35.2127 0.055682C35.1056 -0.0438182 34.9169 -0.0143564 34.4267 0.179641C33.9816 0.35057 33.5336 0.516497 33.0737 0.68687C32.1497 1.02901 31.1941 1.38281 30.2718 1.78248C28.7304 2.45175 27.4996 3.4662 26.614 4.79723C25.9396 5.81002 25.673 6.82753 25.7985 7.90258C25.7977 7.91453 25.7871 7.94315 25.7854 7.94649C24.1765 9.33421 22.6385 10.8965 21.0593 12.7559C22.1124 11.1475 22.7987 9.29558 23.1432 7.14882C23.4904 4.98455 23.5124 3.0582 23.2108 1.25997C23.1916 1.1474 23.1657 1.03484 23.1326 0.89393L23.0834 0.676863C23.0611 0.583756 22.991 0.508436 22.8989 0.479531C22.8068 0.452293 22.7036 0.476473 22.6349 0.541788C22.5247 0.645457 22.4167 0.74329 22.3113 0.838343L22.237 0.905325C21.9671 1.14824 21.7123 1.37753 21.4816 1.63685C19.2406 4.16243 17.9335 6.83003 17.4858 9.79225C17.2819 11.1311 17.3665 12.2709 17.7446 13.2759C17.8698 13.6088 18.0651 13.9062 18.2596 14.2014C18.3486 14.3362 18.4376 14.4715 18.5191 14.6105C18.5792 14.7103 18.5842 14.7361 18.584 14.7314C18.547 15.1275 18.4938 15.5688 18.422 16.0986C18.419 16.1052 18.409 16.1208 18.377 16.163L18.3511 16.1989C17.1255 17.9007 15.9948 19.6947 14.9774 21.5516C15.3775 20.1647 15.696 18.4093 15.6735 16.3695C15.6462 13.9229 15.0823 11.7408 13.9488 9.69775C13.904 9.61826 13.8228 9.56657 13.709 9.55878C13.6263 9.55878 13.5468 9.59964 13.4947 9.6694C13.4608 9.71665 13.4263 9.76112 13.3935 9.80336C13.3203 9.89786 13.2518 9.98736 13.1906 10.083C12.2881 11.4968 11.804 13.0557 11.4826 14.2561C10.8953 16.4576 10.6254 18.2959 10.6332 20.0416C10.6377 21.5255 10.9084 22.6661 11.4854 23.6314C11.6649 23.9318 11.8908 24.1948 12.1178 24.4593C12.2383 24.5997 12.3621 24.744 12.4742 24.8918C12.5527 24.9946 12.5905 25.0994 12.5927 25.1578C12.6075 25.5097 12.5997 25.8674 12.5922 26.2131L12.5869 26.4521C12.5861 26.4933 12.5766 26.5405 12.5624 26.5766C11.8379 28.3301 11.2011 30.1525 10.658 32.0241C10.7378 31.3868 10.7829 30.7698 10.7943 30.1678C10.86 26.7509 9.8108 23.6995 7.67518 21.0972L7.23002 20.5555C7.17855 20.4918 7.10232 20.4557 7.02108 20.4557L6.97656 20.4596C6.88141 20.4755 6.80128 20.5413 6.76818 20.6311C6.72756 20.7392 6.68777 20.8412 6.6491 20.9399C6.57453 21.1305 6.50414 21.3112 6.4446 21.4949C5.98637 22.9288 5.76157 24.4952 5.71594 26.573L5.71511 26.6136C5.68089 28.1253 5.63387 30.1962 6.25541 32.1778C6.86722 34.1287 7.94617 35.1145 8.15539 35.2915L8.17765 35.3115C8.74716 35.8193 9.11803 36.2837 9.19482 36.5853C9.22571 36.707 9.25714 36.8291 9.29387 36.9497C9.45635 37.4864 9.3548 37.9978 9.24518 38.55C9.19065 38.8288 9.13389 39.1167 9.11414 39.4122C9.03568 40.5945 8.93941 41.7968 8.84621 42.9594L8.83786 43.067C8.81394 43.3635 8.79001 43.6601 8.76636 43.9567C8.52876 41.2963 7.6468 38.878 6.12938 36.7393C5.20012 35.4308 4.09224 34.3113 2.8358 33.411C2.78154 33.3721 2.72451 33.3374 2.64828 33.2921C2.61127 33.2707 2.56843 33.2451 2.5164 33.2126C2.43794 33.1656 2.33722 33.1614 2.25626 33.2009C2.17335 33.2412 2.11632 33.3232 2.10686 33.416C2.08988 33.5842 2.07013 33.747 2.04926 33.916C2.00725 34.2621 1.96747 34.5889 1.9658 34.9247C1.94716 38.4049 2.68417 41.6662 4.15707 44.6167C4.56745 45.44 5.1097 46.1521 5.76936 46.734C6.42346 47.308 7.12931 47.6465 7.92585 47.7682C7.94338 47.7713 7.98512 47.7966 7.99152 47.8016C8.03464 47.888 8.07943 47.9747 8.12423 48.0617C8.28337 48.3688 8.4478 48.6865 8.5296 49.005C8.59776 49.2744 8.59776 49.5687 8.59776 49.8805C8.59776 49.9948 8.59776 50.1098 8.60138 50.2227C8.67789 52.9186 8.77833 53.8575 9.21012 56.2663C8.94665 55.5501 8.61584 54.8319 8.18877 54.141C6.45935 51.3447 4.26224 49.4467 1.47196 48.3391C1.29445 48.2677 1.11639 48.2163 0.909948 48.1562L0.868772 48.144C0.785027 48.1195 0.696274 48.0934 0.601401 48.0645C0.515709 48.0364 0.418053 48.0556 0.34822 48.1134C0.278664 48.171 0.242217 48.2591 0.251399 48.3508C0.271987 48.542 0.286176 48.7279 0.299253 48.9094C0.327909 49.3074 0.354897 49.6832 0.45144 50.0551C1.35176 53.529 2.84192 56.2958 5.00676 58.514C5.9324 59.4623 6.90784 60.0059 7.98873 60.1763C8.26139 60.2188 8.5947 60.2241 9.15893 60.1891L9.32141 60.1794C9.34618 60.178 9.36788 60.1766 9.38763 60.1766C9.43215 60.1766 9.43576 60.1766 9.46665 60.2222L10.2226 61.2591C10.2323 61.2727 10.2465 61.3219 10.2562 61.3558L10.2674 61.3931C11.052 64.0501 12.0254 66.6093 13.1734 69.0382C12.6567 68.3259 12.0906 67.6755 11.4595 67.0638C8.5577 64.2511 3.59645 64.1696 3.04029 64.1696L2.97101 64.1702L2.92733 64.1783C2.791 64.2266 2.71727 64.3723 2.75929 64.5093C2.79796 64.6385 2.83413 64.7691 2.87558 64.9226C2.95487 65.2108 3.03723 65.5084 3.15269 65.7964C3.70246 67.1688 4.5936 68.489 5.95772 69.9526C6.89504 70.9559 7.95173 71.9735 9.32587 72.6169C10.8308 73.3228 12.1896 73.4951 13.5409 73.1494C13.7707 73.0891 14.035 73.0126 14.2623 72.8653C14.4243 72.7617 14.4685 72.765 14.6277 72.8834C14.8163 73.0235 15.0169 73.1411 15.2116 73.255C15.3193 73.3181 15.4278 73.3817 15.5291 73.4457C15.5452 73.4593 15.5797 73.5157 15.5925 73.5366C16.805 75.5121 18.1408 77.3481 19.583 79.023C18.8029 78.456 18.0019 78.0457 17.1511 77.7725C14.5511 76.9357 11.826 77.0421 9.12694 78.0847C8.72407 78.2406 8.28253 78.4768 8.25304 78.4935C8.19128 78.5341 8.14871 78.5997 8.13536 78.675C8.12367 78.7489 8.14287 78.8245 8.18794 78.8823C8.27224 78.9918 8.35376 79.1019 8.43444 79.2111L8.45225 79.235C8.63448 79.4829 8.84093 79.7634 9.0724 80.0118C10.1149 81.1283 11.4006 81.8768 12.6348 82.5194C14.3319 83.399 16.0674 83.8729 17.7935 83.9285C17.8748 83.9313 17.956 83.9329 18.037 83.9329C19.6248 83.9329 20.8643 83.4101 21.8197 82.3409C21.8314 82.3326 21.8728 82.3167 21.8956 82.3165C22.2607 82.3426 22.6076 82.3957 22.8669 82.4388C22.9078 82.446 22.9582 82.4704 22.9896 82.4988C24.5857 83.9104 26.2762 85.1494 28.0421 86.2039C27.7744 86.1247 27.4987 86.0558 27.2166 86.0005C25.3294 85.6381 23.4036 85.8654 21.2888 86.7048C19.8621 87.2729 18.5353 88.1075 17.2324 89.2562C17.125 89.3504 17.1099 89.5124 17.1984 89.6247C17.6594 90.2109 18.2593 90.5391 18.7854 90.7826C20.0685 91.3782 21.517 91.7595 23.215 91.9491C23.22 91.9494 23.7656 91.9966 24.5307 91.9966C25.0829 91.9966 25.5968 91.9719 26.0573 91.9232C26.4974 91.8771 26.9364 91.8018 27.3624 91.6995C29.3188 91.2237 30.6446 90.2454 31.4041 88.7265C31.4177 88.7134 31.4762 88.6795 31.5502 88.6614C31.9032 88.5739 32.221 88.5122 32.5231 88.4719C32.5943 88.4605 32.6831 88.4796 32.7949 88.5247C34.146 89.0447 35.5758 89.478 37.0417 89.812C37.0623 89.8171 37.0837 89.8196 37.1051 89.8196C37.2036 89.8196 37.2943 89.7654 37.3422 89.677C37.4821 89.4168 37.6527 89.1673 37.8488 88.9352C37.9103 88.8621 37.9287 88.7648 37.8984 88.6748C37.8694 88.5875 37.796 88.5213 37.7019 88.4994Z" fill="#1C1D28"/>
<path fill-rule="evenodd" clip-rule="evenodd" d="M43.6902 28.4705C43.7033 27.9485 43.7236 27.4477 43.7501 26.972H67.7501C67.7766 27.4477 67.7968 27.9485 67.81 28.4705H77.2504V29.969C77.2504 32.9101 76.537 37.4071 74.3751 41.4732C72.2235 45.5198 68.5868 49.2124 62.7809 50.3732C61.4488 52.0469 59.7938 53.2488 57.7502 53.7219V59.9379C57.7502 63.1346 60.0835 64.5998 61.2502 64.9327H50.2502C53.0502 64.9327 53.7502 61.6029 53.7502 59.9379V53.7219C51.5902 53.2219 49.8643 51.9078 48.4949 50.0828C43.3959 48.677 40.1214 45.2274 38.1253 41.4732C35.9634 37.4071 35.25 32.9101 35.25 29.969V28.4705H43.6902ZM43.695 31.4674H38.3147C38.518 33.9376 39.2245 37.1518 40.7747 40.0674C42.0168 42.4034 43.7771 44.5137 46.2428 45.9286C44.5044 41.5382 43.8209 36.0701 43.695 31.4674ZM64.9956 46.5626C68.136 45.1953 70.2813 42.7839 71.7256 40.0674C73.2758 37.1518 73.9824 33.9376 74.1857 31.4674H67.8052C67.6732 36.2944 66.9278 42.0733 64.9956 46.5626ZM47.7502 65.9317V71.426H63.7502V65.9317H47.7502Z" fill="#F2C94C"/>
</svg>
